<svg width="19" height="23" viewBox="0 0 19 23" fill="none" xmlns="http://www.w3.org/2000/svg">
<path d="M18.3928 5.17151C18.3104 5.07743 18.2095 5.00137 18.0963 4.94808C17.9832 4.89479 17.8603 4.86542 17.7353 4.86181C15.7934 4.81105 13.3362 2.73458 11.7115 1.91974C10.708 1.41797 10.0455 1.08712 9.54793 0.999968C9.4469 0.985247 9.34425 0.985532 9.24331 1.00081C8.74577 1.08797 8.08324 1.41881 7.08054 1.92058C5.45593 2.73458 2.9987 4.81105 1.05677 4.86181C0.931688 4.86561 0.808713 4.89505 0.695474 4.94833C0.582235 5.0016 0.481144 5.07756 0.398467 5.17151C0.227098 5.36539 0.13868 5.61879 0.152236 5.8772C0.56939 14.3582 3.61131 19.6069 8.94885 22.6573C9.08762 22.736 9.24162 22.7766 9.39477 22.7766C9.54793 22.7766 9.70193 22.736 9.84154 22.6573C15.1791 19.6069 18.2202 14.3582 18.6382 5.8772C18.6525 5.61883 18.5643 5.36524 18.3928 5.17151ZM14.1485 8.50705L9.64439 15.1536C9.48277 15.3922 9.22893 15.5504 8.97762 15.5504C8.72547 15.5504 8.44539 15.4125 8.26854 15.2357L5.09377 12.06C4.99012 11.956 4.93192 11.8151 4.93192 11.6683C4.93192 11.5214 4.99012 11.3805 5.09377 11.2765L5.87816 10.4904C5.98241 10.3872 6.1232 10.3293 6.26993 10.3293C6.41665 10.3293 6.55744 10.3872 6.6617 10.4904L8.72631 12.555L12.3132 7.26066C12.3961 7.13951 12.5237 7.05611 12.668 7.02868C12.8122 7.00126 12.9615 7.03203 13.0832 7.11428L14.0012 7.73705C14.1225 7.8199 14.2061 7.9474 14.2337 8.09168C14.2613 8.23595 14.2306 8.38528 14.1485 8.50705Z" fill="#2699FB"/>
</svg>
